# xmcd
#
# Track frame offsets: 
#        150
#        16544
#        30146
#        43600
#        55638
#        67780
#        82086
#        93656
#        111279
#        122555
#
# Disc length: 1845 seconds
#
# Revision: 2
# Processed by: cddbd v1.5.2PL0 Copyright (c) Steve Scherf et al.
# Submitted via: ExactAudioCopyFreeDBPlugin 1.0
#
DISCID=6c07330a
DTITLE=Johnny Cash - The Baron
DYEAR=1971
DGENRE=Country
TTITLE0=The Baron
TTITLE1=Mobile Bay
TTITLE2=The Hard Way
TTITLE3=A Ceiling, Four Walls and a Floor
TTITLE4=Hey, Hey, Train
TTITLE5=The Reverend Mr. Black
TTITLE6=The Blues Keep Gettin' Bluer
TTITLE7=Chattanooga City Limit Sighn
TTITLE8=Thanks to You
TTITLE9=The Greatest Love Affair
EXTD=
EXTT0=
EXTT1=
EXTT2=
EXTT3=
EXTT4=
EXTT5=
EXTT6=
EXTT7=
EXTT8=
EXTT9=
PLAYORDER=
